HIERARCHY
ROOT Hips
{
	OFFSET 0.000000 0.000000 0.000000
	CHANNELS 6 Xposition Yposition Zposition Zrotation Yrotation Xrotation 
	JOINT LHipJoint
	{
		OFFSET 0.000000 0.000000 0.000000
		CHANNELS 3 Zrotation Yrotation Xrotation
		JOINT LeftUpLeg
		{
			OFFSET 1.363060 -1.794630 0.839290
			CHANNELS 3 Zrotation Yrotation Xrotation
			JOINT LeftLeg
			{
				OFFSET 2.448110 -6.726130 0.000000
				CHANNELS 3 Zrotation Yrotation Xrotation
				JOINT LeftFoot
				{
					OFFSET 2.562200 -7.039590 0.000000
					CHANNELS 3 Zrotation Yrotation Xrotation
					JOINT LeftToeBase
					{
						OFFSET 0.157640 -0.433110 2.322550
						CHANNELS 3 Zrotation Yrotation Xrotation
						End Site
						{
							OFFSET 0.000000 0.000000 0.000000
						}
					}
				}
			}
		}
	}
	JOINT RHipJoint
	{
		OFFSET 0.000000 0.000000 0.000000
		CHANNELS 3 Zrotation Yrotation Xrotation
		JOINT RightUpLeg
		{
			OFFSET -1.305520 -1.794630 0.839290
			CHANNELS 3 Zrotation Yrotation Xrotation
			JOINT RightLeg
			{
				OFFSET -2.542530 -6.985550 0.000000
				CHANNELS 3 Zrotation Yrotation Xrotation
				JOINT RightFoot
				{
					OFFSET -2.568260 -7.056230 0.000000
					CHANNELS 3 Zrotation Yrotation Xrotation
					JOINT RightToeBase
					{
						OFFSET -0.164730 -0.452590 2.363150
						CHANNELS 3 Zrotation Yrotation Xrotation
						End Site
						{
							OFFSET 0.000000 0.000000 0.000000
						}
					}
				}
			}
		}
	}
	JOINT LowerBack
	{
		OFFSET 0.000000 0.000000 0.000000
		CHANNELS 3 Zrotation Yrotation Xrotation
		JOINT Spine
		{
			OFFSET 0.028270 2.035590 -0.193380
			CHANNELS 3 Zrotation Yrotation Xrotation
			JOINT Spine1
			{
				OFFSET 0.056720 2.048850 -0.042750
				CHANNELS 3 Zrotation Yrotation Xrotation
				JOINT Neck
				{
					OFFSET 0.000000 0.000000 0.000000
					CHANNELS 3 Zrotation Yrotation Xrotation
					JOINT Neck1
					{
						OFFSET -0.054170 1.746240 0.172020
						CHANNELS 3 Zrotation Yrotation Xrotation
						JOINT Head
						{
							OFFSET 0.104070 1.761360 -0.123970
							CHANNELS 3 Zrotation Yrotation Xrotation
							End Site
							{
								OFFSET 0.000000 0.000000 0.000000
							}
						}
					}
				}
				JOINT LeftShoulder
				{
					OFFSET 0.000000 0.000000 0.000000
					CHANNELS 3 Zrotation Yrotation Xrotation
					JOINT LeftArm
					{
						OFFSET 3.362410 1.200890 -0.311210
						CHANNELS 3 Zrotation Yrotation Xrotation
						JOINT LeftForeArm
						{
							OFFSET 4.983000 -0.000000 -0.000000
							CHANNELS 3 Zrotation Yrotation Xrotation
							JOINT LeftHand
							{
								OFFSET 3.483560 -0.000000 -0.000000
								CHANNELS 3 Zrotation Yrotation Xrotation
								JOINT LeftFingerBase
								{
									OFFSET 0.000000 0.000000 0.000000
									CHANNELS 3 Zrotation Yrotation Xrotation
									JOINT LeftHandIndex1
									{
										OFFSET 0.715260 -0.000000 -0.000000
										CHANNELS 3 Zrotation Yrotation Xrotation
										End Site
										{
											OFFSET 0.000000 0.000000 0.000000
										}
									}
								}
								JOINT LThumb
								{
									OFFSET 0.000000 0.000000 0.000000
									CHANNELS 3 Zrotation Yrotation Xrotation
									End Site
									{
										OFFSET 0.000000 0.000000 0.000000
									}
								}
							}
						}
					}
				}
				JOINT RightShoulder
				{
					OFFSET 0.000000 0.000000 0.000000
					CHANNELS 3 Zrotation Yrotation Xrotation
					JOINT RightArm
					{
						OFFSET -3.136600 1.374050 -0.404650
						CHANNELS 3 Zrotation Yrotation Xrotation
						JOINT RightForeArm
						{
							OFFSET -5.241900 -0.000000 -0.000000
							CHANNELS 3 Zrotation Yrotation Xrotation
							JOINT RightHand
							{
								OFFSET -3.444170 -0.000000 -0.000000
								CHANNELS 3 Zrotation Yrotation Xrotation
								JOINT RightFingerBase
								{
									OFFSET 0.000000 0.000000 0.000000
									CHANNELS 3 Zrotation Yrotation Xrotation
									JOINT RightHandIndex1
									{
										OFFSET -0.622530 -0.000000 -0.000000
										CHANNELS 3 Zrotation Yrotation Xrotation
										End Site
										{
											OFFSET 0.000000 0.000000 0.000000
										}
									}
								}
								JOINT RThumb
								{
									OFFSET 0.000000 0.000000 0.000000
									CHANNELS 3 Zrotation Yrotation Xrotation
									End Site
									{
										OFFSET 0.000000 0.000000 0.000000
									}
								}
							}
						}
					}
				}
			}
		}
	}
}
MOTION
Frames: 9
Frame Time: 0.008333
-3.035802 17.281088 -37.249976 -2.511552 -0.600727 3.365055 5.145421 1.935649 -0.196542 -10.113297 -9.772297 -14.278675 1.645502 11.413315 32.967536 -0.071059 2.966078 -8.372583 1.908100 -8.672000 -24.774600 -6.337914 -1.785668 -0.658051 18.085015 6.645457 -15.699520 -2.506560 -12.426331 36.305671 -1.410720 2.859916 -13.269076 -1.235700 7.049200 -19.861200 -0.503357 2.230263 7.291665 0.607904 2.922850 -1.750865 0.503833 1.394722 -6.810537 -5.841902 -4.072220 -7.212233 6.249688 -5.420986 6.967705 3.147600 -2.584400 2.769500 3.236868 -7.932060 1.036502 -87.787271 -5.651190 32.712237 13.994947 -19.251378 -3.523339 -0.159838 0.989841 29.760119 31.805653 27.081356 15.557000 -7.125000 0.000000 0.000000 3.103500 59.944000 1.132500 -5.748378 7.529281 2.090393 84.526022 -0.347790 28.506263 -18.982651 27.364752 -5.202995 0.398917 -0.915425 3.179377 -25.880428 -23.852748 10.845000 7.125000 0.000000 0.000000 2.876500 -55.046200 -0.710100 
-3.035904 17.280061 -37.253262 -2.511976 -0.704115 3.402842 5.149069 1.932947 -0.203093 -10.149266 -9.560820 -14.395464 1.657180 11.430945 33.017170 -0.091333 3.058075 -8.372873 1.860300 -8.568800 -24.455500 -6.341783 -1.778975 -0.665289 18.066937 6.544315 -15.849429 -2.519531 -12.449744 36.353176 -1.443225 3.084597 -13.181074 -1.194700 6.935600 -19.524800 -0.456346 2.236718 7.290830 0.605117 2.937235 -1.747248 0.458558 1.397907 -6.787316 -5.768860 -4.021572 -7.255529 6.212074 -5.354044 6.962636 3.107900 -2.550100 2.763300 3.241348 -7.933710 1.038861 -87.770814 -5.695667 32.705644 14.044948 -19.308350 -3.539397 -0.162548 0.987696 29.637169 31.784070 27.105524 15.558500 -7.125000 0.000000 0.000000 3.069900 59.967800 1.121900 -5.747091 7.533354 2.085711 84.526047 -0.205252 28.455610 -18.847301 27.213939 -5.152368 0.410839 -0.914047 3.190726 -25.772919 -24.150849 10.931100 7.125000 0.000000 0.000000 3.069500 -55.345200 -0.780100 
-3.035904 17.279137 -37.255213 -2.486580 -0.796363 3.439674 5.150603 1.931327 -0.209673 -10.228528 -9.312454 -14.507494 1.663531 11.442021 33.047649 -0.133088 3.249770 -8.388356 1.853500 -8.554000 -24.409700 -6.344562 -1.774565 -0.671447 18.017343 6.462949 -15.974859 -2.533024 -12.470819 36.399274 -1.475998 3.303500 -13.106313 -1.151400 6.813100 -19.162700 -0.444686 2.240198 7.262926 0.601116 2.942955 -1.741575 0.443647 1.399887 -6.767111 -5.796979 -4.000966 -7.196069 6.227639 -5.328065 6.955445 3.128700 -2.537500 2.739200 3.240179 -7.933933 1.041495 -87.804854 -5.753849 32.588970 14.057522 -19.320954 -3.546231 -0.165683 0.986661 29.592445 31.825047 27.185961 15.625800 -7.125000 0.000000 0.000000 3.100000 60.067800 1.140400 -5.751519 7.531096 2.084965 84.525065 -0.121871 28.400270 -18.755064 27.112705 -5.111701 0.414889 -0.912035 3.194883 -25.611797 -24.142841 10.855600 7.125000 0.000000 0.000000 3.236200 -55.307900 -0.819600 
-3.035494 17.278315 -37.258396 -2.430431 -0.878324 3.473766 5.151628 1.929603 -0.213700 -10.344405 -9.071337 -14.621439 1.668803 11.454135 33.078290 -0.164063 3.388273 -8.386927 1.802600 -8.442300 -24.065800 -6.344818 -1.772678 -0.677309 17.925743 6.297117 -16.128756 -2.548605 -12.487557 36.438910 -1.528959 3.634048 -13.028391 -1.089300 6.632900 -18.632300 -0.459731 2.235641 7.264915 0.593241 2.936222 -1.743018 0.418952 1.396143 -6.765588 -5.785349 -3.971581 -7.209491 6.227289 -5.288944 6.976951 3.128400 -2.518000 2.752500 3.238891 -7.934953 1.040652 -87.816282 -5.772980 32.504881 14.080926 -19.345305 -3.553912 -0.159689 0.987210 29.558844 31.908725 27.092507 15.619000 -7.125000 0.000000 0.000000 3.220000 59.980700 1.177900 -5.755345 7.534367 2.080757 84.530170 -0.061086 28.361711 -18.679069 27.024678 -5.074268 0.412785 -0.912676 3.203996 -25.526410 -23.957094 10.734900 7.125000 0.000000 0.000000 3.272000 -55.093000 -0.811600 
-3.036110 17.276467 -37.260963 -2.458561 -0.962641 3.485384 5.153784 1.933235 -0.218998 -10.374999 -8.769378 -14.738378 1.678145 11.462200 33.109120 -0.193655 3.521870 -8.390542 1.755800 -8.337600 -23.744400 -6.347258 -1.770668 -0.680129 17.941570 6.223680 -16.211142 -2.559902 -12.502675 36.473378 -1.568334 3.925742 -12.906456 -1.010500 6.396100 -17.938000 -0.393325 2.244274 7.287835 0.591516 2.955612 -1.741581 0.377502 1.401609 -6.765792 -5.767573 -3.954203 -7.223910 6.222297 -5.265640 6.998375 3.124300 -2.506500 2.767400 3.240418 -7.938536 1.038818 -87.848341 -5.819803 32.423601 14.107666 -19.369205 -3.559548 -0.166256 0.984434 29.443733 31.788217 27.134808 15.577400 -7.125000 0.000000 0.000000 3.065300 60.004200 1.122900 -5.756885 7.537573 2.078073 84.530562 -0.004972 28.290670 -18.605745 26.944327 -5.048124 0.419112 -0.912160 3.174252 -25.485819 -24.102902 10.781600 7.125000 0.000000 0.000000 3.354200 -55.240800 -0.844000 
-3.036828 17.276159 -37.262914 -2.438350 -1.036136 3.494780 5.153090 1.936433 -0.223571 -10.466395 -8.460363 -14.845547 1.684003 11.468604 33.132911 -0.236904 3.722182 -8.420162 1.727700 -8.274100 -23.549900 -6.349189 -1.770948 -0.684409 17.908229 6.105980 -16.308586 -2.570994 -12.514864 36.504123 -1.598970 4.162166 -12.788098 -0.951200 6.211000 -17.397900 -0.397554 2.239787 7.313426 0.592415 2.949467 -1.737321 0.393081 1.399509 -6.784423 -5.838563 -3.976572 -7.117720 6.249941 -5.296683 6.988760 3.160800 -2.523600 2.741100 3.238819 -7.940722 1.040206 -87.913030 -5.853253 32.293550 14.115647 -19.375303 -3.562677 -0.165605 0.983935 29.420702 31.821639 27.138140 15.597400 -7.125000 0.000000 0.000000 3.103300 60.015500 1.137700 -5.759929 7.536359 2.079662 84.504352 0.062320 28.248673 -18.526737 26.855122 -5.014939 0.420935 -0.911842 3.170030 -25.437000 -24.084515 10.752000 7.125000 0.000000 0.000000 3.398900 -55.212200 -0.852900 
-3.037958 17.274413 -37.266611 -2.444618 -1.113001 3.480035 5.152688 1.944334 -0.225245 -10.527199 -8.129760 -14.937463 1.692096 11.471579 33.157433 -0.270561 3.883469 -8.468572 1.684600 -8.175700 -23.249100 -6.351479 -1.772269 -0.686725 17.908929 5.993013 -16.392266 -2.583635 -12.527831 36.539488 -1.635198 4.460479 -12.628905 -0.867200 5.937800 -16.603900 -0.367806 2.233652 7.384678 0.594376 2.946052 -1.739265 0.382970 1.396283 -6.829169 -5.840454 -3.959633 -7.078554 6.252782 -5.275229 6.981079 3.164300 -2.513300 2.727900 3.239893 -7.945391 1.039153 -87.954000 -5.870409 32.217764 14.125336 -19.383181 -3.567676 -0.174752 0.982091 29.326938 31.773845 27.275200 15.647900 -7.125000 0.000000 0.000000 3.015200 60.160200 1.115700 -5.758813 7.540927 2.080221 84.489008 0.061435 28.209834 -18.492305 26.813617 -4.999866 0.419862 -0.912882 3.142100 -25.461345 -24.012251 10.730900 7.125000 0.000000 0.000000 3.351500 -55.138600 -0.835000 
-3.038882 17.271949 -37.268972 -2.441545 -1.175430 3.455857 5.151265 1.951849 -0.227943 -10.602481 -7.809574 -15.021901 1.698083 11.472920 33.174270 -0.322537 4.116415 -8.482126 1.664500 -8.129200 -23.107100 -6.353907 -1.774639 -0.688394 17.906288 5.916745 -16.439313 -2.593720 -12.537380 36.570766 -1.650004 4.640391 -12.463297 -0.799200 5.705900 -15.933500 -0.358703 2.233713 7.433831 0.597599 2.948091 -1.736269 0.387379 1.396751 -6.852058 -5.835053 -3.935985 -7.028637 6.252847 -5.246136 6.977133 3.163400 -2.499300 2.709800 3.242086 -7.947282 1.039137 -87.989670 -5.886719 32.228366 14.131728 -19.388768 -3.568712 -0.176594 0.981258 29.204508 31.778200 27.248105 15.636100 -7.125000 0.000000 0.000000 3.026900 60.132000 1.118100 -5.757293 7.542697 2.081076 84.477589 0.095834 28.106474 -18.426387 26.739815 -4.979798 0.426086 -0.912568 3.164188 -25.471097 -24.238521 10.835700 7.125000 0.000000 0.000000 3.404800 -55.381800 -0.868400 
-3.041141 17.271846 -37.272874 -2.374649 -1.219096 3.433457 5.149508 1.957630 -0.229874 -10.738315 -7.505461 -15.101483 1.701933 11.475699 33.191713 -0.352003 4.255696 -8.520550 1.616400 -8.016700 -22.764700 -6.354828 -1.777728 -0.691698 17.831940 5.803509 -16.508813 -2.608806 -12.547482 36.607971 -1.683040 4.941578 -12.261368 -0.701200 5.352300 -14.916100 -0.421817 2.230114 7.489994 0.594897 2.938934 -1.730836 0.401764 1.393384 -6.858168 -5.812925 -3.933257 -7.033138 6.234693 -5.242977 6.993994 3.143800 -2.498100 2.719400 3.243483 -7.949751 1.038806 -88.008061 -5.934452 32.269631 14.142087 -19.400251 -3.574586 -0.180387 0.981209 29.120944 31.811897 27.306570 15.687300 -7.125000 0.000000 0.000000 3.054900 60.205000 1.133700 -5.755589 7.547182 2.080149 84.466382 0.136367 28.012702 -18.367473 26.668691 -4.955175 0.426115 -0.913006 3.168109 -25.467286 -24.204573 10.819200 7.125000 0.000000 0.000000 3.397800 -55.344500 -0.863600 
